<svg id="Layer_1" data-name="Layer 1" xmlns="http://www.w3.org/2000/svg" viewBox="0 0 25.06 25.01"><defs><style>.cls-1{fill:#1c2541;}.cls-2{fill:#fff;}.cls-3{fill:#6fffe9;}</style></defs><circle class="cls-1" cx="12.52" cy="12.5" r="12.5"/><path class="cls-2" d="M10.26,18.06,10,18a9.59,9.59,0,0,1-2-.46,4.78,4.78,0,0,1-3.1-3.23,8.44,8.44,0,0,1-.32-2.78A4.87,4.87,0,0,1,5,9.84a4.42,4.42,0,0,1,.78-1.23.19.19,0,0,0,.06-.2,4.24,4.24,0,0,1-.17-2.06A5.21,5.21,0,0,1,6,5.17h.43a3.61,3.61,0,0,1,1,.25,9,9,0,0,1,1.82,1,.37.37,0,0,0,.32.06,10.88,10.88,0,0,1,2.19-.36,11.69,11.69,0,0,1,3.77.37.3.3,0,0,0,.26-.05,11.35,11.35,0,0,1,1.31-.75,4.83,4.83,0,0,1,1.28-.43,4.21,4.21,0,0,1,.62,0,.15.15,0,0,1,.15.11,4.7,4.7,0,0,1,.29,2.46c0,.26-.12.51-.18.78h0l.1.12a4.67,4.67,0,0,1,1.12,2.53,7.76,7.76,0,0,1-.25,3,4.66,4.66,0,0,1-2.59,3.13,8.23,8.23,0,0,1-2.29.65l-.52.08.1.11a5.88,5.88,0,0,1,.36.51,3.17,3.17,0,0,1,.36,1.48c0,.94,0,1.88,0,2.82v.86a.58.58,0,0,0,.6.59,1.13,1.13,0,0,0,.36-.06,10.73,10.73,0,0,0,2-.9A12.55,12.55,0,0,0,25.05,13a12,12,0,0,0-.29-3.16,12.2,12.2,0,0,0-3.52-6.3A12.32,12.32,0,0,0,13.94.08a12.63,12.63,0,0,0-3.25.06,12.26,12.26,0,0,0-4.16,1.4A12.53,12.53,0,0,0,0,12.48,12.43,12.43,0,0,0,1.57,18.6a12.43,12.43,0,0,0,6,5.42c.3.14.62.25.93.36a.75.75,0,0,0,.64,0,.62.62,0,0,0,.3-.6c0-.71,0-1.43,0-2.14,0,0,0-.07,0-.12-.27,0-.53.08-.79.1a4.67,4.67,0,0,1-1.82-.13,2.24,2.24,0,0,1-1.55-1.35,5.86,5.86,0,0,0-.54-1,2.76,2.76,0,0,0-1-1,1.5,1.5,0,0,1-.33-.29c-.15-.19-.09-.33.14-.39a1.67,1.67,0,0,1,.63,0,2.14,2.14,0,0,1,1.1.6,3.77,3.77,0,0,1,.63.8A2.47,2.47,0,0,0,7.57,20a3.17,3.17,0,0,0,1.82-.24.16.16,0,0,0,.1-.15A2.69,2.69,0,0,1,10.26,18.06Z"/><path class="cls-3" d="M10.26,18.06a2.69,2.69,0,0,0-.77,1.56.16.16,0,0,1-.1.15A3.17,3.17,0,0,1,7.57,20a2.47,2.47,0,0,1-1.66-1.18,3.77,3.77,0,0,0-.63-.8,2.14,2.14,0,0,0-1.1-.6,1.67,1.67,0,0,0-.63,0c-.23.06-.29.2-.14.39a1.5,1.5,0,0,0,.33.29,2.76,2.76,0,0,1,1,1,5.86,5.86,0,0,1,.54,1,2.24,2.24,0,0,0,1.55,1.35,4.67,4.67,0,0,0,1.82.13c.26,0,.52-.06.79-.1,0,.05,0,.08,0,.12,0,.71,0,1.43,0,2.14a.62.62,0,0,1-.3.6.75.75,0,0,1-.64,0c-.31-.11-.63-.22-.93-.36a12.43,12.43,0,0,1-6-5.42A12.51,12.51,0,0,1,1.18,7.23,12.39,12.39,0,0,1,6.53,1.54,12.26,12.26,0,0,1,10.69.14,12.63,12.63,0,0,1,13.94.08a12.32,12.32,0,0,1,7.3,3.46,12.2,12.2,0,0,1,3.52,6.3A12,12,0,0,1,25.05,13a12.55,12.55,0,0,1-6.41,10.47,10.73,10.73,0,0,1-2,.9,1.13,1.13,0,0,1-.36.06.58.58,0,0,1-.6-.59V23c0-.94,0-1.88,0-2.82a3.17,3.17,0,0,0-.36-1.48,5.88,5.88,0,0,0-.36-.51l-.1-.11.52-.08a8.23,8.23,0,0,0,2.29-.65,4.66,4.66,0,0,0,2.59-3.13,7.76,7.76,0,0,0,.25-3,4.67,4.67,0,0,0-1.12-2.53l-.1-.12h0c.06-.27.14-.52.18-.78a4.7,4.7,0,0,0-.29-2.46A.15.15,0,0,0,19,5.17a4.21,4.21,0,0,0-.62,0,4.83,4.83,0,0,0-1.28.43,11.35,11.35,0,0,0-1.31.75.3.3,0,0,1-.26.05,11.69,11.69,0,0,0-3.77-.37,10.88,10.88,0,0,0-2.19.36.37.37,0,0,1-.32-.06,9,9,0,0,0-1.82-1,3.61,3.61,0,0,0-1-.25H6a5.21,5.21,0,0,0-.33,1.18,4.24,4.24,0,0,0,.17,2.06.19.19,0,0,1-.06.2A4.42,4.42,0,0,0,5,9.84a4.87,4.87,0,0,0-.41,1.71,8.44,8.44,0,0,0,.32,2.78A4.78,4.78,0,0,0,8,17.56,9.59,9.59,0,0,0,10,18Z"/></svg>