<svg id="Layer_1" data-name="Layer 1" xmlns="http://www.w3.org/2000/svg" viewBox="0 0 22.75 22.75"><defs><style>.cls-1{fill:#6fffe9;}.cls-2{fill:#1c2541;fill-rule:evenodd;}</style></defs><circle class="cls-1" cx="11.37" cy="11.37" r="11.37"/><path class="cls-2" d="M11.37,15.07a3.68,3.68,0,0,0,3.68-3.68,3.73,3.73,0,0,0-3.68-3.68,3.68,3.68,0,0,0,0,7.36Zm0-6.14a2.43,2.43,0,1,1-2.43,2.43A2.42,2.42,0,0,1,11.37,8.93Z"/><path class="cls-2" d="M15.19,8.42A.83.83,0,0,0,16,7.58a.84.84,0,0,0-.84-.85.85.85,0,0,0-.85.85A.84.84,0,0,0,15.19,8.42Z"/><path class="cls-2" d="M8.37,18.51h6a4.15,4.15,0,0,0,4.15-4.15v-6a4.19,4.19,0,0,0-4.15-4.15h-6v0A4.15,4.15,0,0,0,4.22,8.42v5.94A4.15,4.15,0,0,0,8.37,18.51ZM5.44,8.39a2.9,2.9,0,0,1,2.9-2.9h6a2.89,2.89,0,0,1,2.91,2.9v5.94a2.89,2.89,0,0,1-2.91,2.9h-6a2.88,2.88,0,0,1-2.9-2.9Z"/></svg>