<svg id="Layer_1" data-name="Layer 1" xmlns="http://www.w3.org/2000/svg" viewBox="0 0 22.75 22.75"><defs><style>.cls-1{fill:#6fffe9;}.cls-2{fill:#1c2541;fill-rule:evenodd;}</style></defs><circle class="cls-1" cx="11.37" cy="11.37" r="11.37"/><path class="cls-2" d="M16.78,8.92V8.56a4.08,4.08,0,0,0,1.51-1.4,4.62,4.62,0,0,1-1.64.42A2.85,2.85,0,0,0,17.9,6a5.7,5.7,0,0,1-1.8.69A2.78,2.78,0,0,0,14,5.82a2.81,2.81,0,0,0-2.81,2.81,4.76,4.76,0,0,0,.06.65A8,8,0,0,1,5.47,6.34a2.9,2.9,0,0,0-.39,1.41A2.84,2.84,0,0,0,6.32,10.1a2.82,2.82,0,0,1-1.27-.36v0A2.81,2.81,0,0,0,7.3,12.52a2.9,2.9,0,0,1-.71.1A3.57,3.57,0,0,1,6,12.55a2.78,2.78,0,0,0,2.61,1.93,5.72,5.72,0,0,1-3.49,1.21,5.31,5.31,0,0,1-.69,0,7.83,7.83,0,0,0,4.32,1.27A7.93,7.93,0,0,0,16.78,8.92Z"/></svg>